# xmcd
#
# Track frame offsets:
#	150
#	12922
#	22714
#	32795
#	41881
#	55402
#	65915
#	77034
#	92714
#	105546
#	117553
#	131155
#	145024
#	155100
#	165722
#	177907
#	191835
#	206940
#	217515
#	227039
#
# Disc length: 3220 seconds
# Revision: 0
# Processed by: cddbd v1.5.2PL0 Copyright (c) Steve Scherf et al.
# Submitted via: dBpowerAMP V12.0
#
DISCID=200c9214
DTITLE=Carl Perkins - The Rockabilly Years
DYEAR=2014
DGENRE=Rock and Roll
TTITLE0=Boppin' The Blues
TTITLE1=Movie Magg
TTITLE2=Everybody's Trying To Be My Baby
TTITLE3=Pointed Toe Shoes
TTITLE4=Long Tall Sally
TTITLE5=Anyway The Wind Blows
TTITLE6=I'm Sorry I'm Not Sorry
TTITLE7=Shake, Rattle And Roll
TTITLE8=That's Right
TTITLE9=Gone Gone Gone
TTITLE10=Whole Lotta Shakin' Goin' On
TTITLE11=Tennessee
TTITLE12=Pop, Let Me Have The Car
TTITLE13=Good Rockin' Tonight
TTITLE14=Hey, Good Lookin'
TTITLE15=Highway Of Love
TTITLE16=Only You
TTITLE17=Jive After Five
TTITLE18=Tutti Frutti
TTITLE19=Where The Rio De Rosa Flows
EXTD=
EXTT0=
EXTT1=
EXTT2=
EXTT3=
EXTT4=
EXTT5=
EXTT6=
EXTT7=
EXTT8=
EXTT9=
EXTT10=
EXTT11=
EXTT12=
EXTT13=
EXTT14=
EXTT15=
EXTT16=
EXTT17=
EXTT18=
EXTT19=
PLAYORDER=
